name D:\school\WTK\thesis\model\3dpredictsim\Results\PredSim_adaptations\Pog_s1_tmtL_bCst_ig24.mot
datacolumns 128
datarows 4
range 0.00000000 0.03222316
endheader
time	pelvis_tilt	pelvis_list	pelvis_rotation	pelvis_tx	pelvis_ty	pelvis_tz	hip_flexion_l	hip_adduction_l	hip_rotation_l	hip_flexion_r	hip_adduction_r	hip_rotation_r	knee_angle_l	knee_angle_r	ankle_angle_l	ankle_angle_r	subtalar_angle_l	subtalar_angle_r	tmt_angle_l	tmt_angle_r	mtp_angle_l	mtp_angle_r	lumbar_extension	lumbar_bending	lumbar_rotation	arm_flex_l	arm_add_l	arm_rot_l	arm_flex_r	arm_add_r	arm_rot_r	elbow_flex_l	elbow_flex_r	pro_sup_l	pro_sup_r	glut_med1_l/activation	glut_med2_l/activation	glut_med3_l/activation	glut_min1_l/activation	glut_min2_l/activation	glut_min3_l/activation	semimem_l/activation	semiten_l/activation	bifemlh_l/activation	bifemsh_l/activation	sar_l/activation	add_long_l/activation	add_brev_l/activation	add_mag1_l/activation	add_mag2_l/activation	add_mag3_l/activation	tfl_l/activation	pect_l/activation	grac_l/activation	glut_max1_l/activation	glut_max2_l/activation	glut_max3_l/activation	iliacus_l/activation	psoas_l/activation	quad_fem_l/activation	gem_l/activation	peri_l/activation	rect_fem_l/activation	vas_med_l/activation	vas_int_l/activation	vas_lat_l/activation	med_gas_l/activation	lat_gas_l/activation	soleus_l/activation	tib_post_l/activation	flex_dig_l/activation	flex_hal_l/activation	tib_ant_l/activation	per_brev_l/activation	per_long_l/activation	per_tert_l/activation	ext_dig_l/activation	ext_hal_l/activation	ercspn_l/activation	intobl_l/activation	extobl_l/activation	glut_med1_r/activation	glut_med2_r/activation	glut_med3_r/activation	glut_min1_r/activation	glut_min2_r/activation	glut_min3_r/activation	semimem_r/activation	semiten_r/activation	bifemlh_r/activation	bifemsh_r/activation	sar_r/activation	add_long_r/activation	add_brev_r/activation	add_mag1_r/activation	add_mag2_r/activation	add_mag3_r/activation	tfl_r/activation	pect_r/activation	grac_r/activation	glut_max1_r/activation	glut_max2_r/activation	glut_max3_r/activation	iliacus_r/activation	psoas_r/activation	quad_fem_r/activation	gem_r/activation	peri_r/activation	rect_fem_r/activation	vas_med_r/activation	vas_int_r/activation	vas_lat_r/activation	med_gas_r/activation	lat_gas_r/activation	soleus_r/activation	tib_post_r/activation	flex_dig_r/activation	flex_hal_r/activation	tib_ant_r/activation	per_brev_r/activation	per_long_r/activation	per_tert_r/activation	ext_dig_r/activation	ext_hal_r/activation	ercspn_r/activation	intobl_r/activation	extobl_r/activation	
          0.00000000	         -2.92962609	         -2.23096578	          5.24402903	          0.00000000	          0.85857688	         -0.00218083	        -18.10402102	         -1.68363006	          7.12998964	         31.61685724	          3.12929863	         -1.72305285	         -5.94391307	        -14.55387829	          1.71397051	          7.30178155	          9.49402706	         -3.28734623	          0.00000000	          0.00000000	         21.42201171	         -0.12942314	         -2.02844653	          0.56850392	         -1.98141927	          9.02671294	        -13.45234211	         18.68153727	         -8.00143953	        -13.50384277	         11.09792170	         32.80505080	         11.67677334	         86.51662706	         86.51662706	          0.33154112	          0.11391235	          0.08194647	          0.34542692	          0.22550453	          0.11391506	          0.05000188	          0.05000035	          0.05000024	          0.07850513	          0.11391720	          0.05000028	          0.05000025	          0.05000030	          0.05000080	          0.05000055	          0.33426182	          0.05000116	          0.05000093	          0.05003454	          0.05001165	          0.05000237	          0.38559217	          0.63794881	          0.05000067	          0.05000206	          0.05824329	          0.20320018	          0.05000202	          0.05000120	          0.05000123	          0.33532006	          0.44871606	          0.31443148	          0.27239424	          0.28320345	          0.38883960	          0.05000007	          0.06120656	          0.15939853	          0.05000033	          0.05000010	          0.05000035	          0.05000003	          0.05000002	          0.05000005	          0.10816632	          0.05000027	          0.05895049	          0.05000019	          0.05000025	          0.05000088	          0.05895092	          0.05895108	          0.20422050	          0.05000098	          0.05000411	          0.10185193	          0.15267168	          0.20970615	          0.15817178	          0.10573628	          0.05895086	          0.05007074	          0.05896179	          0.05896656	          0.06950361	          0.10654046	          0.05000023	          0.05000030	          0.25134941	          0.05040275	          0.05000092	          0.05000073	          0.09077816	          0.09590908	          0.08037504	          0.05895076	          0.05447729	          0.05895085	          0.05000012	          0.05000195	          0.05001314	          0.49052212	          0.37990105	          0.22060086	          0.27279078	          0.54330699	          0.27476582	          0.07863537	          0.11043205	          0.11534107	
          0.01074105	         -2.92492608	         -2.32220852	          5.54250854	          0.01597086	          0.85750504	         -0.00198660	        -17.98616727	         -1.98036611	          6.90139504	         31.03691790	          3.47357990	         -1.51126530	         -7.85589873	        -14.41251322	          0.99163689	          6.73987304	         10.44762793	         -3.76473742	          0.00000000	          0.00000000	         22.45210325	         -0.11022866	         -1.84225781	          0.78690919	         -2.05497700	          8.90043863	        -13.45972304	         18.81143508	         -9.03658377	        -13.49804066	         11.05760593	         33.95560113	         11.54247388	         86.51662706	         86.51662706	          0.28120133	          0.09661637	          0.06950409	          0.29297881	          0.19126487	          0.09661870	          0.05000759	          0.05000096	          0.05000136	          0.06658526	          0.09662076	          0.11267185	          0.05001837	          0.06280646	          0.05001736	          0.06949130	          0.28350901	          0.06119423	          0.05000567	          0.05000409	          0.05000270	          0.05000280	          0.32704542	          0.56850969	          0.05000072	          0.05003416	          0.05895103	          0.17234722	          0.05001054	          0.17218574	          0.15901171	          0.28440634	          0.38058479	          0.27021412	          0.25009449	          0.24020817	          0.32980546	          0.05000005	          0.05194297	          0.16720555	          0.05000027	          0.05000007	          0.05000025	          0.05000004	          0.06950409	          0.05000004	          0.09174297	          0.05895053	          0.05000022	          0.05895182	          0.05895099	          0.05000140	          0.05000017	          0.05000068	          0.17676916	          0.05000085	          0.05000190	          0.08639241	          0.12949119	          0.22425660	          0.17670867	          0.10296155	          0.05000051	          0.05000573	          0.05001006	          0.05001520	          0.05895070	          0.10765752	          0.05108103	          0.05218908	          0.50147959	          0.13439879	          0.08963328	          0.06950437	          0.18479520	          0.18817188	          0.16212267	          0.05000001	          0.05000002	          0.05000000	          0.05000021	          0.05895131	          0.05000422	          0.54674777	          0.33670930	          0.22875872	          0.46089363	          0.58481365	          0.25062699	          0.06669571	          0.09366449	          0.09782814	
          0.02148211	         -2.91605464	         -2.40813676	          5.81807525	          0.03224972	          0.85645252	         -0.00180020	        -17.79296649	         -2.26831386	          6.66255458	         30.33294927	          3.76923794	         -1.23753148	         -9.90400272	        -14.81413850	          0.11068919	          6.10974675	         11.36396797	         -4.26375180	          0.00000000	          0.00000000	         23.33765548	         -0.15227750	         -1.63259247	          1.00634090	         -2.11899551	          8.68418736	        -13.46742038	         18.87314150	        -10.09777900	        -13.49447149	         11.02797550	         35.07427046	         11.47728545	         86.51662706	         86.51662706	          0.33522803	          0.08194654	          0.05895092	          0.24849439	          0.16222404	          0.08194854	          0.05000349	          0.05000109	          0.05000107	          0.05647528	          0.08195061	          0.13858182	          0.10163874	          0.05895271	          0.05895103	          0.05895057	          0.24046275	          0.08312700	          0.05004806	          0.05002384	          0.05002544	          0.05891684	          0.27738833	          0.54321473	          0.05576490	          0.05000223	          0.05000032	          0.14617873	          0.09624242	          0.14604261	          0.13486909	          0.24122317	          0.32279827	          0.22918584	          0.21212128	          0.20373634	          0.27972941	          0.05000004	          0.05000066	          0.18341421	          0.05000016	          0.05000005	          0.05000020	          0.05524231	          0.05895088	          0.05000207	          0.26336618	          0.05000012	          0.29453795	          0.05000091	          0.05000033	          0.20226957	          0.07372124	          0.05000035	          0.15962061	          0.05000012	          0.05000073	          0.08194926	          0.22678733	          0.19020797	          0.14988496	          0.13065429	          0.05000092	          0.05896887	          0.11214350	          0.05000022	          0.05000030	          0.11990399	          0.05602596	          0.05000181	          0.42533692	          0.11399237	          0.16056682	          0.05895112	          0.15673677	          0.15960079	          0.13750673	          0.06487894	          0.06649358	          0.05907264	          0.05895091	          0.05000063	          0.05000117	          0.46373168	          0.34396012	          0.19402504	          0.39091355	          0.57635858	          0.21257280	          0.05656892	          0.09432812	          0.08297429	
          0.03222316	         -2.90464086	         -2.49312962	          6.06353451	          0.04868154	          0.85542420	         -0.00160289	        -17.50088080	         -2.54750295	          6.41990292	         29.50249954	          4.03103106	         -0.95363721	        -12.10871620	        -15.26157325	         -0.92116260	          5.66417366	         12.22391104	         -4.75612183	          0.00000000	          0.00000000	         24.03501411	         -0.16186085	         -1.41483273	          1.23010007	         -2.17321019	          8.40024643	        -13.47789046	         18.87780127	        -11.14439701	        -13.49369807	         11.02871205	         36.15078480	         11.45343749	         86.51662706	         86.51662706	          0.30331644	          0.06950413	          0.05000020	          0.34900542	          0.13759268	          0.06950586	          0.05000582	          0.05000028	          0.05000025	          0.05000034	          0.06950856	          0.13048028	          0.08620655	          0.05000194	          0.05000152	          0.05000078	          0.26224491	          0.07051102	          0.05000081	          0.05000224	          0.05000135	          0.05000079	          0.23527100	          0.50640073	          0.05000016	          0.05000100	          0.05000058	          0.13430458	          0.08163001	          0.12386946	          0.12956975	          0.20459676	          0.27378582	          0.19438714	          0.17991367	          0.17280203	          0.23725653	          0.05000006	          0.09562359	          0.18332371	          0.05000028	          0.05000036	          0.05000034	          0.07297843	          0.05000003	          0.05000004	          0.31536969	          0.28684236	          0.36464419	          0.19442705	          0.20553642	          0.17155905	          0.06252791	          0.09770578	          0.13538450	          0.08195118	          0.05894629	          0.06950646	          0.19235285	          0.16132772	          0.12712739	          0.15187778	          0.05000056	          0.05001577	          0.09511770	          0.22189883	          0.16933657	          0.13148339	          0.05000014	          0.05000016	          0.36075551	          0.09668459	          0.13618742	          0.05000025	          0.13293859	          0.13536787	          0.11662837	          0.05502799	          0.05639749	          0.05010328	          0.05000005	          0.05895097	          0.05049325	          0.59245578	          0.43185986	          0.22296146	          0.64506878	          0.64601539	          0.33844632	          0.07810483	          0.08964115	          0.07037580	
